<svg xmlns="http://www.w3.org/2000/svg" width="24" height="24" viewBox="0 0 24 24" fill="none">
  <path d="M16.666 6.55588H18.9993" stroke="#B89535" stroke-width="1.5" stroke-linecap="square" stroke-linejoin="round"/>
  <path d="M5 6.55588H13.5556" stroke="#B89535" stroke-width="1.5" stroke-linecap="square" stroke-linejoin="round"/>
  <path d="M10.4443 12.0002H18.9999" stroke="#B89535" stroke-width="1.5" stroke-linecap="square" stroke-linejoin="round"/>
  <path d="M5 12.0002H7.33333" stroke="#B89535" stroke-width="1.5" stroke-linecap="square" stroke-linejoin="round"/>
  <path d="M16.666 17.4446H18.9993" stroke="#B89535" stroke-width="1.5" stroke-linecap="square" stroke-linejoin="round"/>
  <path d="M5 17.4446H13.5556" stroke="#B89535" stroke-width="1.5" stroke-linecap="square" stroke-linejoin="round"/>
  <path d="M16.2112 5.45561C16.8186 6.06309 16.8186 7.04802 16.2112 7.6555C15.6037 8.26298 14.6188 8.26298 14.0113 7.6555C13.4038 7.04802 13.4038 6.0631 14.0113 5.45561C14.6188 4.84813 15.6037 4.84813 16.2112 5.45561" stroke="#B89535" stroke-width="1.5" stroke-linecap="round" stroke-linejoin="round"/>
  <path d="M9.98949 10.8999C10.597 11.5074 10.597 12.4924 9.98949 13.0998C9.382 13.7073 8.39708 13.7073 7.7896 13.0998C7.18211 12.4924 7.18211 11.5074 7.7896 10.8999C8.39708 10.2925 9.382 10.2925 9.98949 10.8999" stroke="#B89535" stroke-width="1.5" stroke-linecap="round" stroke-linejoin="round"/>
  <path d="M16.2112 16.3443C16.8186 16.9518 16.8186 17.9367 16.2112 18.5442C15.6037 19.1517 14.6188 19.1517 14.0113 18.5442C13.4038 17.9367 13.4038 16.9518 14.0113 16.3443C14.6188 15.7368 15.6037 15.7368 16.2112 16.3443" stroke="#B89535" stroke-width="1.5" stroke-linecap="round" stroke-linejoin="round"/>
</svg>